<svg width="308" height="95" viewBox="0 0 308 95" fill="none" xmlns="http://www.w3.org/2000/svg">
<path d="M128.592 33.252C129.181 33.252 129.657 33.456 130.02 33.864C130.428 34.272 130.632 34.7707 130.632 35.36V65.96C130.632 66.5493 130.428 67.048 130.02 67.456C129.657 67.8187 129.181 68 128.592 68C128.003 68 127.504 67.8187 127.096 67.456C126.733 67.048 126.552 66.5493 126.552 65.96V61.404C125.419 63.444 123.719 65.1667 121.452 66.572C119.185 67.9773 116.715 68.68 114.04 68.68C111.003 68.68 108.26 67.8867 105.812 66.3C103.409 64.7133 101.505 62.5373 100.1 59.772C98.74 57.0067 98.06 53.9013 98.06 50.456C98.06 47.0107 98.7627 43.928 100.168 41.208C101.573 38.4427 103.477 36.2893 105.88 34.748C108.328 33.2067 111.025 32.436 113.972 32.436C116.692 32.436 119.185 33.0933 121.452 34.408C123.719 35.7227 125.419 37.4453 126.552 39.576V35.36C126.552 34.7707 126.733 34.272 127.096 33.864C127.504 33.456 128.003 33.252 128.592 33.252ZM114.448 64.872C116.805 64.872 118.913 64.26 120.772 63.036C122.676 61.7667 124.149 60.044 125.192 57.868C126.28 55.6467 126.824 53.176 126.824 50.456C126.824 47.8267 126.28 45.424 125.192 43.248C124.149 41.072 122.676 39.372 120.772 38.148C118.913 36.8787 116.805 36.244 114.448 36.244C112.091 36.244 109.96 36.856 108.056 38.08C106.197 39.304 104.724 41.004 103.636 43.18C102.593 45.3107 102.072 47.736 102.072 50.456C102.072 53.176 102.593 55.6467 103.636 57.868C104.679 60.044 106.129 61.7667 107.988 63.036C109.892 64.26 112.045 64.872 114.448 64.872ZM153.586 32.436C157.802 32.436 160.885 33.6827 162.834 36.176C164.829 38.624 165.826 41.888 165.826 45.968V65.96C165.826 66.5493 165.622 67.048 165.214 67.456C164.806 67.8187 164.33 68 163.786 68C163.197 68 162.698 67.8187 162.29 67.456C161.928 67.048 161.746 66.5493 161.746 65.96V46.172C161.746 43.2253 160.998 40.8453 159.502 39.032C158.052 37.1733 155.785 36.244 152.702 36.244C150.753 36.244 148.894 36.6973 147.126 37.604C145.404 38.5107 143.998 39.7347 142.91 41.276C141.822 42.772 141.278 44.404 141.278 46.172V65.96C141.278 66.5493 141.074 67.048 140.666 67.456C140.304 67.8187 139.828 68 139.238 68C138.649 68 138.15 67.8187 137.742 67.456C137.38 67.048 137.198 66.5493 137.198 65.96V35.496C137.198 34.9067 137.38 34.4307 137.742 34.068C138.15 33.66 138.649 33.456 139.238 33.456C139.828 33.456 140.304 33.66 140.666 34.068C141.074 34.4307 141.278 34.9067 141.278 35.496V39.236C142.502 37.2867 144.248 35.6773 146.514 34.408C148.826 33.0933 151.184 32.436 153.586 32.436ZM204.527 50.592C204.527 53.992 203.779 57.0747 202.283 59.84C200.787 62.6053 198.724 64.7813 196.095 66.368C193.465 67.9093 190.541 68.68 187.323 68.68C184.104 68.68 181.18 67.9093 178.551 66.368C175.921 64.7813 173.859 62.6053 172.363 59.84C170.867 57.0747 170.119 53.992 170.119 50.592C170.119 47.192 170.867 44.1093 172.363 41.344C173.859 38.5787 175.921 36.4027 178.551 34.816C181.18 33.2293 184.104 32.436 187.323 32.436C190.541 32.436 193.465 33.2293 196.095 34.816C198.724 36.4027 200.787 38.5787 202.283 41.344C203.779 44.1093 204.527 47.192 204.527 50.592ZM200.447 50.592C200.447 47.872 199.88 45.424 198.747 43.248C197.613 41.072 196.027 39.372 193.987 38.148C191.992 36.8787 189.771 36.244 187.323 36.244C184.875 36.244 182.653 36.8787 180.659 38.148C178.664 39.372 177.077 41.072 175.899 43.248C174.765 45.424 174.199 47.872 174.199 50.592C174.199 53.2667 174.765 55.692 175.899 57.868C177.077 60.044 178.664 61.7667 180.659 63.036C182.653 64.26 184.875 64.872 187.323 64.872C189.771 64.872 191.992 64.26 193.987 63.036C196.027 61.812 197.613 60.112 198.747 57.936C199.88 55.76 200.447 53.312 200.447 50.592ZM215.592 37.196V59.976C215.592 61.6987 215.909 62.8773 216.544 63.512C217.179 64.1013 218.017 64.396 219.06 64.396C219.332 64.396 219.672 64.3507 220.08 64.26C220.488 64.124 220.805 64.056 221.032 64.056C221.44 64.056 221.78 64.2373 222.052 64.6C222.369 64.9173 222.528 65.3027 222.528 65.756C222.528 66.3907 222.165 66.9347 221.44 67.388C220.715 67.796 219.853 68 218.856 68C217.632 68 216.544 67.8867 215.592 67.66C214.64 67.4333 213.711 66.7533 212.804 65.62C211.943 64.4867 211.512 62.6733 211.512 60.18V37.196H206.548C206.004 37.196 205.528 37.0147 205.12 36.652C204.757 36.2893 204.576 35.836 204.576 35.292C204.576 34.748 204.757 34.2947 205.12 33.932C205.528 33.5693 206.004 33.388 206.548 33.388H211.512V25.84C211.512 25.2507 211.693 24.7747 212.056 24.412C212.464 24.004 212.963 23.8 213.552 23.8C214.141 23.8 214.617 24.004 214.98 24.412C215.388 24.7747 215.592 25.2507 215.592 25.84V33.388H222.392C222.891 33.388 223.321 33.592 223.684 34C224.092 34.408 224.296 34.8613 224.296 35.36C224.296 35.904 224.115 36.3573 223.752 36.72C223.389 37.0373 222.936 37.196 222.392 37.196H215.592Z" fill="black"/>
<path d="M229.48 68C229.027 68 228.68 67.8667 228.44 67.6C228.2 67.3067 228.08 66.92 228.08 66.44V65.6C228.08 65.12 228.2 64.7467 228.44 64.48C228.68 64.2133 229.027 64.08 229.48 64.08H229.76C230.213 64.08 230.56 64.2133 230.8 64.48C231.04 64.7467 231.16 65.12 231.16 65.6V66.44C231.16 66.92 231.04 67.3067 230.8 67.6C230.56 67.8667 230.213 68 229.76 68H229.48ZM243.507 40.68C242.653 40.68 241.987 40.96 241.507 41.52C241.053 42.08 240.827 42.8533 240.827 43.84V47.96H245.307C245.6 47.96 245.853 48.0667 246.067 48.28C246.307 48.4933 246.427 48.76 246.427 49.08C246.427 49.4 246.307 49.6667 246.067 49.88C245.853 50.0933 245.6 50.2 245.307 50.2H240.827V66.8C240.827 67.1467 240.707 67.44 240.467 67.68C240.253 67.8933 239.973 68 239.627 68C239.28 68 238.987 67.8933 238.747 67.68C238.533 67.44 238.427 67.1467 238.427 66.8V50.2H235.507C235.187 50.2 234.92 50.0933 234.707 49.88C234.493 49.64 234.387 49.3733 234.387 49.08C234.387 48.7333 234.493 48.4667 234.707 48.28C234.92 48.0667 235.187 47.96 235.507 47.96H238.427V43.84C238.427 42.16 238.907 40.8667 239.867 39.96C240.853 39.0267 242.16 38.56 243.787 38.56C244.533 38.56 245.227 38.68 245.867 38.92C246.507 39.1333 246.827 39.4933 246.827 40C246.827 40.32 246.72 40.5867 246.507 40.8C246.293 41.0133 246.053 41.12 245.787 41.12C245.547 41.12 245.253 41.0533 244.907 40.92C244.32 40.76 243.853 40.68 243.507 40.68ZM252.827 66.8C252.827 67.1467 252.707 67.44 252.467 67.68C252.253 67.8933 251.973 68 251.627 68C251.28 68 250.987 67.8933 250.747 67.68C250.533 67.44 250.427 67.1467 250.427 66.8V48.4C250.427 48.0533 250.533 47.7733 250.747 47.56C250.987 47.32 251.28 47.2 251.627 47.2C251.973 47.2 252.253 47.32 252.467 47.56C252.707 47.7733 252.827 48.0533 252.827 48.4V66.8ZM251.627 44.52C251.093 44.52 250.68 44.4 250.387 44.16C250.093 43.8933 249.947 43.52 249.947 43.04V42.64C249.947 42.16 250.093 41.8 250.387 41.56C250.707 41.2933 251.133 41.16 251.667 41.16C252.733 41.16 253.267 41.6533 253.267 42.64V43.04C253.267 43.52 253.12 43.8933 252.827 44.16C252.56 44.4 252.16 44.52 251.627 44.52ZM257.922 64.76C257.709 64.4133 257.602 64.12 257.602 63.88C257.602 63.5333 257.775 63.2667 258.122 63.08C258.282 62.92 258.495 62.84 258.762 62.84C259.082 62.84 259.375 62.9733 259.642 63.24C261.215 65.32 263.309 66.36 265.922 66.36C267.202 66.36 268.309 66.0667 269.242 65.48C270.202 64.8667 270.682 63.9867 270.682 62.84C270.682 61.72 270.242 60.88 269.362 60.32C268.482 59.76 267.255 59.28 265.682 58.88C263.469 58.32 261.735 57.6 260.482 56.72C259.229 55.8133 258.602 54.4933 258.602 52.76C258.602 51.6667 258.909 50.6933 259.522 49.84C260.135 48.96 260.962 48.28 262.002 47.8C263.069 47.32 264.269 47.08 265.602 47.08C266.749 47.08 267.895 47.3067 269.042 47.76C270.215 48.1867 271.215 48.88 272.042 49.84C272.282 50.0267 272.402 50.2933 272.402 50.64C272.402 50.96 272.269 51.24 272.002 51.48C271.815 51.64 271.575 51.72 271.282 51.72C271.015 51.72 270.775 51.6133 270.562 51.4C269.922 50.68 269.162 50.1333 268.282 49.76C267.402 49.3867 266.455 49.2 265.442 49.2C264.189 49.2 263.109 49.4933 262.202 50.08C261.322 50.6667 260.882 51.5467 260.882 52.72C260.935 53.7867 261.415 54.6 262.322 55.16C263.255 55.72 264.615 56.2267 266.402 56.68C267.789 57.0267 268.935 57.4133 269.842 57.84C270.749 58.2667 271.482 58.8667 272.042 59.64C272.629 60.4133 272.922 61.44 272.922 62.72C272.922 64.4533 272.229 65.84 270.842 66.88C269.455 67.8933 267.735 68.4 265.682 68.4C262.429 68.4 259.842 67.1867 257.922 64.76ZM280.152 66.8C280.152 67.1467 280.032 67.44 279.792 67.68C279.579 67.8933 279.299 68 278.952 68C278.605 68 278.312 67.8933 278.072 67.68C277.859 67.44 277.752 67.1467 277.752 66.8V48.4C277.752 48.0533 277.859 47.7733 278.072 47.56C278.312 47.32 278.605 47.2 278.952 47.2C279.299 47.2 279.579 47.32 279.792 47.56C280.032 47.7733 280.152 48.0533 280.152 48.4V66.8ZM278.952 44.52C278.419 44.52 278.005 44.4 277.712 44.16C277.419 43.8933 277.272 43.52 277.272 43.04V42.64C277.272 42.16 277.419 41.8 277.712 41.56C278.032 41.2933 278.459 41.16 278.992 41.16C280.059 41.16 280.592 41.6533 280.592 42.64V43.04C280.592 43.52 280.445 43.8933 280.152 44.16C279.885 44.4 279.485 44.52 278.952 44.52ZM305.267 57.76C305.267 59.76 304.827 61.5733 303.947 63.2C303.067 64.8267 301.853 66.1067 300.307 67.04C298.76 67.9467 297.04 68.4 295.147 68.4C293.253 68.4 291.533 67.9467 289.987 67.04C288.44 66.1067 287.227 64.8267 286.347 63.2C285.467 61.5733 285.027 59.76 285.027 57.76C285.027 55.76 285.467 53.9467 286.347 52.32C287.227 50.6933 288.44 49.4133 289.987 48.48C291.533 47.5467 293.253 47.08 295.147 47.08C297.04 47.08 298.76 47.5467 300.307 48.48C301.853 49.4133 303.067 50.6933 303.947 52.32C304.827 53.9467 305.267 55.76 305.267 57.76ZM302.867 57.76C302.867 56.16 302.533 54.72 301.867 53.44C301.2 52.16 300.267 51.16 299.067 50.44C297.893 49.6933 296.587 49.32 295.147 49.32C293.707 49.32 292.4 49.6933 291.227 50.44C290.053 51.16 289.12 52.16 288.427 53.44C287.76 54.72 287.427 56.16 287.427 57.76C287.427 59.3333 287.76 60.76 288.427 62.04C289.12 63.32 290.053 64.3333 291.227 65.08C292.4 65.8 293.707 66.16 295.147 66.16C296.587 66.16 297.893 65.8 299.067 65.08C300.267 64.36 301.2 63.36 301.867 62.08C302.533 60.8 302.867 59.36 302.867 57.76Z" fill="black"/>
<g clip-path="url(#clip0_140_2)">
<path d="M54.5 27.5V27.1C54.5 22 50.6 17.8 45.9 17.8H11.1C6.3 17.8 2.5 21.9 2.5 27.1V82.3C2.5 87.4 6.4 91.6 11.1 91.6H45.8C50.6 91.6 54.4 87.5 54.4 82.3V81.5" fill="white"/>
<path fill-rule="evenodd" clip-rule="evenodd" d="M0 27.1C0 20.7055 4.74025 15.3 11.1 15.3H45.9C52.1584 15.3 57 20.804 57 27.1V27.5C57 28.8808 55.8807 30 54.5 30C53.1193 30 52 28.8808 52 27.5V27.1C52 23.1961 49.0416 20.3 45.9 20.3H11.1C7.85975 20.3 5 23.0946 5 27.1V82.3C5 86.204 7.9584 89.1 11.1 89.1H45.8C49.0402 89.1 51.9 86.3055 51.9 82.3V81.5C51.9 80.1193 53.0193 79 54.4 79C55.7807 79 56.9 80.1193 56.9 81.5V82.3C56.9 88.6946 52.1597 94.1 45.8 94.1H11.1C4.8416 94.1 0 88.5961 0 82.3V27.1Z" fill="#552A7F"/>
<path d="M23.6 15.9C23.6 13.2 26 11 29 11C32 11 34.4 13.2 34.4 15.9" fill="#552A7F"/>
<path fill-rule="evenodd" clip-rule="evenodd" d="M54.3 55.7C55.6808 55.7 56.8 56.8192 56.8 58.2V72.5999C56.8 73.9807 55.6808 75.0999 54.3 75.0999C52.9193 75.0999 51.8 73.9807 51.8 72.5999V58.2C51.8 56.8192 52.9193 55.7 54.3 55.7Z" fill="#552A7F"/>
<path fill-rule="evenodd" clip-rule="evenodd" d="M67.5 30.7C68.8807 30.7 70 31.8192 70 33.2V52C70 53.3807 68.8807 54.5 67.5 54.5C66.1193 54.5 65 53.3807 65 52V33.2C65 31.8192 66.1193 30.7 67.5 30.7Z" fill="#552A7F"/>
<path fill-rule="evenodd" clip-rule="evenodd" d="M47.7 30.7C49.0807 30.7 50.2 31.8192 50.2 33.2V52C50.2 53.3807 49.0807 54.5 47.7 54.5C46.3192 54.5 45.2 53.3807 45.2 52V33.2C45.2 31.8192 46.3192 30.7 47.7 30.7Z" fill="#552A7F"/>
<path fill-rule="evenodd" clip-rule="evenodd" d="M60.9 36.8C62.2807 36.8 63.4 37.9193 63.4 39.3V52C63.4 53.3808 62.2807 54.5 60.9 54.5C59.5193 54.5 58.4 53.3808 58.4 52V39.3C58.4 37.9193 59.5193 36.8 60.9 36.8Z" fill="#552A7F"/>
<path fill-rule="evenodd" clip-rule="evenodd" d="M54.3 35.1001C55.6808 35.1001 56.8 36.2194 56.8 37.6001V52.0001C56.8 53.3808 55.6808 54.5001 54.3 54.5001C52.9193 54.5001 51.8 53.3808 51.8 52.0001V37.6001C51.8 36.2194 52.9193 35.1001 54.3 35.1001Z" fill="#552A7F"/>
<path fill-rule="evenodd" clip-rule="evenodd" d="M41.1 55.8C42.4807 55.8 43.6 56.9193 43.6 58.3V69.5C43.6 70.8808 42.4807 72 41.1 72C39.7193 72 38.6 70.8808 38.6 69.5V58.3C38.6 56.9193 39.7193 55.8 41.1 55.8Z" fill="#552A7F"/>
<path fill-rule="evenodd" clip-rule="evenodd" d="M41.1 38.3C42.4807 38.3 43.6 39.4193 43.6 40.8V52C43.6 53.3808 42.4807 54.5 41.1 54.5C39.7193 54.5 38.6 53.3808 38.6 52V40.8C38.6 39.4193 39.7193 38.3 41.1 38.3Z" fill="#552A7F"/>
<path fill-rule="evenodd" clip-rule="evenodd" d="M34.4 42C35.7807 42 36.9 43.1193 36.9 44.5V52C36.9 53.3807 35.7807 54.5 34.4 54.5C33.0193 54.5 31.9 53.3807 31.9 52V44.5C31.9 43.1193 33.0193 42 34.4 42Z" fill="#552A7F"/>
<path fill-rule="evenodd" clip-rule="evenodd" d="M74.2 42C75.5807 42 76.7 43.1193 76.7 44.5V52C76.7 53.3807 75.5807 54.5 74.2 54.5C72.8192 54.5 71.7 53.3807 71.7 52V44.5C71.7 43.1193 72.8192 42 74.2 42Z" fill="#552A7F"/>
<path fill-rule="evenodd" clip-rule="evenodd" d="M74.2 55.8C75.5807 55.8 76.7 56.9193 76.7 58.3V65.8C76.7 67.1808 75.5807 68.3 74.2 68.3C72.8192 68.3 71.7 67.1808 71.7 65.8V58.3C71.7 56.9193 72.8192 55.8 74.2 55.8Z" fill="#552A7F"/>
<path fill-rule="evenodd" clip-rule="evenodd" d="M67.5 55.7C68.8807 55.7 70 56.8192 70 58.2V77C70 78.3807 68.8807 79.5 67.5 79.5C66.1193 79.5 65 78.3807 65 77V58.2C65 56.8192 66.1193 55.7 67.5 55.7Z" fill="#552A7F"/>
<path fill-rule="evenodd" clip-rule="evenodd" d="M47.7 55.7C49.0807 55.7 50.2 56.8192 50.2 58.2V77C50.2 78.3807 49.0807 79.5 47.7 79.5C46.3192 79.5 45.2 78.3807 45.2 77V58.2C45.2 56.8192 46.3192 55.7 47.7 55.7Z" fill="#552A7F"/>
<path fill-rule="evenodd" clip-rule="evenodd" d="M60.9 55.7C62.2807 55.7 63.4 56.8192 63.4 58.2V70.9C63.4 72.2807 62.2807 73.4 60.9 73.4C59.5193 73.4 58.4 72.2807 58.4 70.9V58.2C58.4 56.8192 59.5193 55.7 60.9 55.7Z" fill="#552A7F"/>
<path fill-rule="evenodd" clip-rule="evenodd" d="M34.1 55.7C35.4807 55.7 36.6 56.8192 36.6 58.2V66.5C36.6 67.8807 35.4807 69 34.1 69C32.7193 69 31.6 67.8807 31.6 66.5V58.2C31.6 56.8192 32.7193 55.7 34.1 55.7Z" fill="#552A7F"/>
<path fill-rule="evenodd" clip-rule="evenodd" d="M80.5 55.7C81.8807 55.7 83 56.8192 83 58.2V62.5999C83 63.9807 81.8807 65.0999 80.5 65.0999C79.1193 65.0999 78 63.9807 78 62.5999V58.2C78 56.8192 79.1193 55.7 80.5 55.7Z" fill="#552A7F"/>
<path fill-rule="evenodd" clip-rule="evenodd" d="M80.5 45C81.8807 45 83 46.1193 83 47.5V51.8C83 53.1807 81.8807 54.3 80.5 54.3C79.1193 54.3 78 53.1807 78 51.8V47.5C78 46.1193 79.1193 45 80.5 45Z" fill="#552A7F"/>
<path fill-rule="evenodd" clip-rule="evenodd" d="M27.9 55.7C29.2807 55.7 30.4 56.8192 30.4 58.2V62.5999C30.4 63.9807 29.2807 65.0999 27.9 65.0999C26.5193 65.0999 25.4 63.9807 25.4 62.5999V58.2C25.4 56.8192 26.5193 55.7 27.9 55.7Z" fill="#552A7F"/>
<path fill-rule="evenodd" clip-rule="evenodd" d="M27.9 45C29.2807 45 30.4 46.1193 30.4 47.5V51.8C30.4 53.1807 29.2807 54.3 27.9 54.3C26.5193 54.3 25.4 53.1807 25.4 51.8V47.5C25.4 46.1193 26.5193 45 27.9 45Z" fill="#552A7F"/>
</g>
<defs>
<clipPath id="clip0_140_2">
<rect width="83" height="83.1" fill="white" transform="translate(0 11)"/>
</clipPath>
</defs>
</svg>
