<svg width="287" height="94" viewBox="0 0 287 94" fill="none" xmlns="http://www.w3.org/2000/svg">
<path d="M129.592 33.252C130.181 33.252 130.657 33.456 131.02 33.864C131.428 34.272 131.632 34.7707 131.632 35.36V65.96C131.632 66.5493 131.428 67.048 131.02 67.456C130.657 67.8187 130.181 68 129.592 68C129.003 68 128.504 67.8187 128.096 67.456C127.733 67.048 127.552 66.5493 127.552 65.96V61.404C126.419 63.444 124.719 65.1667 122.452 66.572C120.185 67.9773 117.715 68.68 115.04 68.68C112.003 68.68 109.26 67.8867 106.812 66.3C104.409 64.7133 102.505 62.5373 101.1 59.772C99.74 57.0067 99.06 53.9013 99.06 50.456C99.06 47.0107 99.7627 43.928 101.168 41.208C102.573 38.4427 104.477 36.2893 106.88 34.748C109.328 33.2067 112.025 32.436 114.972 32.436C117.692 32.436 120.185 33.0933 122.452 34.408C124.719 35.7227 126.419 37.4453 127.552 39.576V35.36C127.552 34.7707 127.733 34.272 128.096 33.864C128.504 33.456 129.003 33.252 129.592 33.252ZM115.448 64.872C117.805 64.872 119.913 64.26 121.772 63.036C123.676 61.7667 125.149 60.044 126.192 57.868C127.28 55.6467 127.824 53.176 127.824 50.456C127.824 47.8267 127.28 45.424 126.192 43.248C125.149 41.072 123.676 39.372 121.772 38.148C119.913 36.8787 117.805 36.244 115.448 36.244C113.091 36.244 110.96 36.856 109.056 38.08C107.197 39.304 105.724 41.004 104.636 43.18C103.593 45.3107 103.072 47.736 103.072 50.456C103.072 53.176 103.593 55.6467 104.636 57.868C105.679 60.044 107.129 61.7667 108.988 63.036C110.892 64.26 113.045 64.872 115.448 64.872ZM154.586 32.436C158.802 32.436 161.885 33.6827 163.834 36.176C165.829 38.624 166.826 41.888 166.826 45.968V65.96C166.826 66.5493 166.622 67.048 166.214 67.456C165.806 67.8187 165.33 68 164.786 68C164.197 68 163.698 67.8187 163.29 67.456C162.928 67.048 162.746 66.5493 162.746 65.96V46.172C162.746 43.2253 161.998 40.8453 160.502 39.032C159.052 37.1733 156.785 36.244 153.702 36.244C151.753 36.244 149.894 36.6973 148.126 37.604C146.404 38.5107 144.998 39.7347 143.91 41.276C142.822 42.772 142.278 44.404 142.278 46.172V65.96C142.278 66.5493 142.074 67.048 141.666 67.456C141.304 67.8187 140.828 68 140.238 68C139.649 68 139.15 67.8187 138.742 67.456C138.38 67.048 138.198 66.5493 138.198 65.96V35.496C138.198 34.9067 138.38 34.4307 138.742 34.068C139.15 33.66 139.649 33.456 140.238 33.456C140.828 33.456 141.304 33.66 141.666 34.068C142.074 34.4307 142.278 34.9067 142.278 35.496V39.236C143.502 37.2867 145.248 35.6773 147.514 34.408C149.826 33.0933 152.184 32.436 154.586 32.436ZM205.527 50.592C205.527 53.992 204.779 57.0747 203.283 59.84C201.787 62.6053 199.724 64.7813 197.095 66.368C194.465 67.9093 191.541 68.68 188.323 68.68C185.104 68.68 182.18 67.9093 179.551 66.368C176.921 64.7813 174.859 62.6053 173.363 59.84C171.867 57.0747 171.119 53.992 171.119 50.592C171.119 47.192 171.867 44.1093 173.363 41.344C174.859 38.5787 176.921 36.4027 179.551 34.816C182.18 33.2293 185.104 32.436 188.323 32.436C191.541 32.436 194.465 33.2293 197.095 34.816C199.724 36.4027 201.787 38.5787 203.283 41.344C204.779 44.1093 205.527 47.192 205.527 50.592ZM201.447 50.592C201.447 47.872 200.88 45.424 199.747 43.248C198.613 41.072 197.027 39.372 194.987 38.148C192.992 36.8787 190.771 36.244 188.323 36.244C185.875 36.244 183.653 36.8787 181.659 38.148C179.664 39.372 178.077 41.072 176.899 43.248C175.765 45.424 175.199 47.872 175.199 50.592C175.199 53.2667 175.765 55.692 176.899 57.868C178.077 60.044 179.664 61.7667 181.659 63.036C183.653 64.26 185.875 64.872 188.323 64.872C190.771 64.872 192.992 64.26 194.987 63.036C197.027 61.812 198.613 60.112 199.747 57.936C200.88 55.76 201.447 53.312 201.447 50.592ZM216.592 37.196V59.976C216.592 61.6987 216.909 62.8773 217.544 63.512C218.179 64.1013 219.017 64.396 220.06 64.396C220.332 64.396 220.672 64.3507 221.08 64.26C221.488 64.124 221.805 64.056 222.032 64.056C222.44 64.056 222.78 64.2373 223.052 64.6C223.369 64.9173 223.528 65.3027 223.528 65.756C223.528 66.3907 223.165 66.9347 222.44 67.388C221.715 67.796 220.853 68 219.856 68C218.632 68 217.544 67.8867 216.592 67.66C215.64 67.4333 214.711 66.7533 213.804 65.62C212.943 64.4867 212.512 62.6733 212.512 60.18V37.196H207.548C207.004 37.196 206.528 37.0147 206.12 36.652C205.757 36.2893 205.576 35.836 205.576 35.292C205.576 34.748 205.757 34.2947 206.12 33.932C206.528 33.5693 207.004 33.388 207.548 33.388H212.512V25.84C212.512 25.2507 212.693 24.7747 213.056 24.412C213.464 24.004 213.963 23.8 214.552 23.8C215.141 23.8 215.617 24.004 215.98 24.412C216.388 24.7747 216.592 25.2507 216.592 25.84V33.388H223.392C223.891 33.388 224.321 33.592 224.684 34C225.092 34.408 225.296 34.8613 225.296 35.36C225.296 35.904 225.115 36.3573 224.752 36.72C224.389 37.0373 223.936 37.196 223.392 37.196H216.592ZM268.331 65.28C268.422 65.6427 268.467 65.9147 268.467 66.096C268.467 66.6853 268.263 67.1613 267.855 67.524C267.447 67.8867 266.971 68.068 266.427 68.068C265.974 68.068 265.566 67.9547 265.203 67.728C264.886 67.456 264.636 67.116 264.455 66.708L259.355 54.264H237.255L232.223 66.708C231.86 67.6147 231.248 68.068 230.387 68.068C229.752 68.068 229.276 67.9093 228.959 67.592C228.642 67.2747 228.46 66.844 228.415 66.3V66.096C228.415 65.824 228.438 65.62 228.483 65.484L246.435 21.556C246.798 20.6493 247.478 20.196 248.475 20.196C248.928 20.196 249.314 20.332 249.631 20.604C249.994 20.8307 250.266 21.148 250.447 21.556L268.331 65.28ZM238.819 50.252H257.723L248.203 26.996L238.819 50.252ZM280.126 65.892C280.081 66.4813 279.854 66.98 279.446 67.388C279.038 67.796 278.54 68 277.95 68C277.316 68 276.794 67.8187 276.386 67.456C276.024 67.048 275.842 66.5267 275.842 65.892V22.508C275.842 21.8733 276.046 21.3747 276.454 21.012C276.862 20.604 277.384 20.4 278.018 20.4C278.608 20.4 279.106 20.604 279.514 21.012C279.922 21.42 280.126 21.9187 280.126 22.508V65.892Z" fill="black"/>
<path d="M106.921 87.3047C106.921 87.0557 106.882 86.8359 106.804 86.6455C106.731 86.4502 106.599 86.2744 106.409 86.1182C106.223 85.9619 105.964 85.813 105.632 85.6714C105.305 85.5298 104.89 85.3857 104.387 85.2393C103.86 85.083 103.384 84.9097 102.959 84.7192C102.534 84.5239 102.17 84.3018 101.868 84.0527C101.565 83.8037 101.333 83.5181 101.172 83.1958C101.011 82.8735 100.93 82.5049 100.93 82.0898C100.93 81.6748 101.016 81.2915 101.187 80.9399C101.357 80.5884 101.602 80.2832 101.919 80.0244C102.241 79.7607 102.625 79.5557 103.069 79.4092C103.513 79.2627 104.009 79.1895 104.556 79.1895C105.356 79.1895 106.035 79.3433 106.592 79.6509C107.153 79.9536 107.581 80.3516 107.874 80.8447C108.167 81.333 108.313 81.8555 108.313 82.4121H106.907C106.907 82.0117 106.821 81.6577 106.65 81.3501C106.479 81.0376 106.221 80.7935 105.874 80.6177C105.527 80.437 105.088 80.3467 104.556 80.3467C104.053 80.3467 103.638 80.4224 103.311 80.5737C102.983 80.7251 102.739 80.9302 102.578 81.189C102.422 81.4478 102.344 81.7432 102.344 82.0752C102.344 82.2998 102.39 82.5049 102.483 82.6904C102.581 82.8711 102.729 83.0396 102.93 83.1958C103.135 83.3521 103.394 83.4961 103.706 83.6279C104.023 83.7598 104.402 83.8867 104.841 84.0088C105.447 84.1797 105.969 84.3701 106.409 84.5801C106.848 84.79 107.209 85.0269 107.493 85.2905C107.781 85.5493 107.993 85.8447 108.13 86.1768C108.271 86.5039 108.342 86.875 108.342 87.29C108.342 87.7246 108.254 88.1177 108.079 88.4692C107.903 88.8208 107.651 89.1211 107.324 89.3701C106.997 89.6191 106.604 89.812 106.145 89.9487C105.691 90.0806 105.183 90.1465 104.622 90.1465C104.128 90.1465 103.643 90.0781 103.164 89.9414C102.69 89.8047 102.258 89.5996 101.868 89.3262C101.482 89.0527 101.172 88.7158 100.938 88.3154C100.708 87.9102 100.593 87.4414 100.593 86.9092H102C102 87.2754 102.07 87.5903 102.212 87.854C102.354 88.1128 102.546 88.3276 102.791 88.4985C103.04 88.6694 103.32 88.7964 103.633 88.8794C103.95 88.9575 104.28 88.9966 104.622 88.9966C105.115 88.9966 105.532 88.9282 105.874 88.7915C106.216 88.6548 106.475 88.4595 106.65 88.2056C106.831 87.9517 106.921 87.6514 106.921 87.3047ZM112.328 90.1465C111.776 90.1465 111.275 90.0537 110.826 89.8682C110.382 89.6777 109.998 89.4116 109.676 89.0698C109.359 88.728 109.115 88.3228 108.944 87.854C108.773 87.3853 108.687 86.8726 108.687 86.3159V86.0083C108.687 85.3638 108.783 84.79 108.973 84.2871C109.163 83.7793 109.422 83.3496 109.749 82.998C110.077 82.6465 110.448 82.3804 110.863 82.1997C111.278 82.019 111.707 81.9287 112.152 81.9287C112.718 81.9287 113.206 82.0264 113.617 82.2217C114.032 82.417 114.371 82.6904 114.635 83.042C114.898 83.3887 115.094 83.7988 115.221 84.2725C115.348 84.7412 115.411 85.2539 115.411 85.8105V86.4185H109.493V85.3125H114.056V85.21C114.037 84.8584 113.963 84.5166 113.836 84.1846C113.714 83.8525 113.519 83.5791 113.25 83.3643C112.982 83.1494 112.616 83.042 112.152 83.042C111.844 83.042 111.561 83.1079 111.302 83.2397C111.043 83.3667 110.821 83.5571 110.636 83.811C110.45 84.0649 110.306 84.375 110.204 84.7412C110.101 85.1074 110.05 85.5298 110.05 86.0083V86.3159C110.05 86.6919 110.101 87.0459 110.204 87.3779C110.311 87.7051 110.465 87.9932 110.665 88.2422C110.87 88.4912 111.117 88.6865 111.405 88.8281C111.698 88.9697 112.03 89.0405 112.401 89.0405C112.879 89.0405 113.285 88.9429 113.617 88.7476C113.949 88.5522 114.239 88.291 114.488 87.9639L115.308 88.6157C115.138 88.8745 114.92 89.1211 114.657 89.3555C114.393 89.5898 114.068 89.7803 113.683 89.9268C113.302 90.0732 112.85 90.1465 112.328 90.1465ZM120.942 88.1689V82.0752H122.304V90H121.008L120.942 88.1689ZM121.198 86.499L121.762 86.4844C121.762 87.0117 121.706 87.5 121.594 87.9492C121.486 88.3936 121.31 88.7793 121.066 89.1064C120.822 89.4336 120.502 89.6899 120.107 89.8755C119.711 90.0562 119.23 90.1465 118.664 90.1465C118.278 90.1465 117.924 90.0903 117.602 89.978C117.284 89.8657 117.011 89.6924 116.782 89.458C116.552 89.2236 116.374 88.9185 116.247 88.5425C116.125 88.1665 116.064 87.7148 116.064 87.1875V82.0752H117.419V87.2021C117.419 87.5586 117.458 87.854 117.536 88.0884C117.619 88.3179 117.729 88.501 117.866 88.6377C118.007 88.7695 118.163 88.8623 118.334 88.916C118.51 88.9697 118.691 88.9966 118.876 88.9966C119.452 88.9966 119.909 88.8867 120.246 88.667C120.583 88.4424 120.825 88.1421 120.971 87.7661C121.122 87.3853 121.198 86.9629 121.198 86.499ZM127.645 83.3203V90H126.29V82.0752H127.608L127.645 83.3203ZM130.121 82.0312L130.113 83.291C130.001 83.2666 129.894 83.252 129.791 83.2471C129.693 83.2373 129.581 83.2324 129.454 83.2324C129.142 83.2324 128.866 83.2812 128.627 83.3789C128.387 83.4766 128.185 83.6133 128.019 83.7891C127.853 83.9648 127.721 84.1748 127.623 84.4189C127.53 84.6582 127.469 84.9219 127.44 85.21L127.059 85.4297C127.059 84.9512 127.106 84.502 127.198 84.082C127.296 83.6621 127.445 83.291 127.645 82.9688C127.845 82.6416 128.099 82.3877 128.407 82.207C128.719 82.0215 129.09 81.9287 129.52 81.9287C129.618 81.9287 129.73 81.9409 129.857 81.9653C129.984 81.9849 130.072 82.0068 130.121 82.0312ZM133.615 90.1465C133.063 90.1465 132.563 90.0537 132.114 89.8682C131.669 89.6777 131.286 89.4116 130.964 89.0698C130.646 88.728 130.402 88.3228 130.231 87.854C130.061 87.3853 129.975 86.8726 129.975 86.3159V86.0083C129.975 85.3638 130.07 84.79 130.261 84.2871C130.451 83.7793 130.71 83.3496 131.037 82.998C131.364 82.6465 131.735 82.3804 132.15 82.1997C132.565 82.019 132.995 81.9287 133.439 81.9287C134.006 81.9287 134.494 82.0264 134.904 82.2217C135.319 82.417 135.659 82.6904 135.922 83.042C136.186 83.3887 136.381 83.7988 136.508 84.2725C136.635 84.7412 136.699 85.2539 136.699 85.8105V86.4185H130.781V85.3125H135.344V85.21C135.324 84.8584 135.251 84.5166 135.124 84.1846C135.002 83.8525 134.807 83.5791 134.538 83.3643C134.27 83.1494 133.903 83.042 133.439 83.042C133.132 83.042 132.849 83.1079 132.59 83.2397C132.331 83.3667 132.109 83.5571 131.923 83.811C131.738 84.0649 131.594 84.375 131.491 84.7412C131.389 85.1074 131.337 85.5298 131.337 86.0083V86.3159C131.337 86.6919 131.389 87.0459 131.491 87.3779C131.599 87.7051 131.752 87.9932 131.953 88.2422C132.158 88.4912 132.404 88.6865 132.692 88.8281C132.985 88.9697 133.317 89.0405 133.688 89.0405C134.167 89.0405 134.572 88.9429 134.904 88.7476C135.236 88.5522 135.527 88.291 135.776 87.9639L136.596 88.6157C136.425 88.8745 136.208 89.1211 135.944 89.3555C135.681 89.5898 135.356 89.7803 134.97 89.9268C134.589 90.0732 134.138 90.1465 133.615 90.1465ZM138.853 78.75V90H137.491V78.75H138.853ZM144.801 88.645V84.5654C144.801 84.2529 144.738 83.9819 144.611 83.7524C144.489 83.5181 144.303 83.3374 144.054 83.2104C143.805 83.0835 143.497 83.02 143.131 83.02C142.789 83.02 142.489 83.0786 142.23 83.1958C141.976 83.313 141.776 83.4668 141.63 83.6572C141.488 83.8477 141.417 84.0527 141.417 84.2725H140.062C140.062 83.9893 140.136 83.7085 140.282 83.4302C140.429 83.1519 140.638 82.9004 140.912 82.6758C141.19 82.4463 141.522 82.2656 141.908 82.1338C142.299 81.9971 142.733 81.9287 143.212 81.9287C143.788 81.9287 144.296 82.0264 144.735 82.2217C145.179 82.417 145.526 82.7124 145.775 83.1079C146.029 83.4985 146.156 83.9893 146.156 84.5801V88.2715C146.156 88.5352 146.178 88.8159 146.222 89.1138C146.271 89.4116 146.342 89.668 146.434 89.8828V90H145.021C144.952 89.8438 144.899 89.6362 144.86 89.3774C144.821 89.1138 144.801 88.8696 144.801 88.645ZM145.035 85.1953L145.05 86.1475H143.68C143.295 86.1475 142.95 86.1792 142.648 86.2427C142.345 86.3013 142.091 86.3916 141.886 86.5137C141.681 86.6357 141.525 86.7896 141.417 86.9751C141.31 87.1558 141.256 87.3682 141.256 87.6123C141.256 87.8613 141.312 88.0884 141.425 88.2935C141.537 88.4985 141.705 88.6621 141.93 88.7842C142.159 88.9014 142.44 88.96 142.772 88.96C143.187 88.96 143.554 88.8721 143.871 88.6963C144.188 88.5205 144.44 88.3057 144.625 88.0518C144.816 87.7979 144.918 87.5513 144.933 87.312L145.512 87.9639C145.477 88.1689 145.385 88.396 145.233 88.645C145.082 88.894 144.879 89.1333 144.625 89.3628C144.376 89.5874 144.078 89.7754 143.732 89.9268C143.39 90.0732 143.004 90.1465 142.575 90.1465C142.037 90.1465 141.566 90.0415 141.161 89.8315C140.761 89.6216 140.448 89.3408 140.223 88.9893C140.004 88.6328 139.894 88.2349 139.894 87.7954C139.894 87.3706 139.977 86.9971 140.143 86.6748C140.309 86.3477 140.548 86.0767 140.861 85.8618C141.173 85.6421 141.549 85.4761 141.989 85.3638C142.428 85.2515 142.919 85.1953 143.461 85.1953H145.035ZM150.705 82.0752V83.1152H146.421V82.0752H150.705ZM147.871 80.1489H149.226V88.0371C149.226 88.3057 149.267 88.5083 149.35 88.645C149.433 88.7817 149.541 88.8721 149.673 88.916C149.804 88.96 149.946 88.9819 150.097 88.9819C150.21 88.9819 150.327 88.9722 150.449 88.9526C150.576 88.9282 150.671 88.9087 150.735 88.894L150.742 90C150.634 90.0342 150.493 90.0659 150.317 90.0952C150.146 90.1294 149.939 90.1465 149.695 90.1465C149.362 90.1465 149.057 90.0806 148.779 89.9487C148.501 89.8169 148.279 89.5972 148.112 89.2896C147.951 88.9771 147.871 88.5571 147.871 88.0298V80.1489ZM150.889 86.1255V85.957C150.889 85.3857 150.972 84.856 151.138 84.3677C151.304 83.8745 151.544 83.4473 151.856 83.0859C152.169 82.7197 152.547 82.4365 152.991 82.2363C153.436 82.0312 153.934 81.9287 154.485 81.9287C155.042 81.9287 155.543 82.0312 155.987 82.2363C156.436 82.4365 156.817 82.7197 157.129 83.0859C157.447 83.4473 157.689 83.8745 157.855 84.3677C158.021 84.856 158.104 85.3857 158.104 85.957V86.1255C158.104 86.6968 158.021 87.2266 157.855 87.7148C157.689 88.2031 157.447 88.6304 157.129 88.9966C156.817 89.3579 156.439 89.6411 155.994 89.8462C155.555 90.0464 155.057 90.1465 154.5 90.1465C153.943 90.1465 153.443 90.0464 152.999 89.8462C152.554 89.6411 152.173 89.3579 151.856 88.9966C151.544 88.6304 151.304 88.2031 151.138 87.7148C150.972 87.2266 150.889 86.6968 150.889 86.1255ZM152.244 85.957V86.1255C152.244 86.521 152.291 86.8945 152.383 87.2461C152.476 87.5928 152.615 87.9004 152.801 88.1689C152.991 88.4375 153.228 88.6499 153.511 88.8062C153.795 88.9575 154.124 89.0332 154.5 89.0332C154.871 89.0332 155.196 88.9575 155.474 88.8062C155.757 88.6499 155.992 88.4375 156.177 88.1689C156.363 87.9004 156.502 87.5928 156.595 87.2461C156.692 86.8945 156.741 86.521 156.741 86.1255V85.957C156.741 85.5664 156.692 85.1978 156.595 84.8511C156.502 84.4995 156.36 84.1895 156.17 83.9209C155.984 83.6475 155.75 83.4326 155.467 83.2764C155.189 83.1201 154.861 83.042 154.485 83.042C154.114 83.042 153.787 83.1201 153.504 83.2764C153.226 83.4326 152.991 83.6475 152.801 83.9209C152.615 84.1895 152.476 84.4995 152.383 84.8511C152.291 85.1978 152.244 85.5664 152.244 85.957ZM153.68 80.9033L155.101 78.75H156.734L154.771 80.9033H153.68ZM160.258 83.3203V90H158.903V82.0752H160.221L160.258 83.3203ZM162.733 82.0312L162.726 83.291C162.614 83.2666 162.506 83.252 162.404 83.2471C162.306 83.2373 162.194 83.2324 162.067 83.2324C161.754 83.2324 161.479 83.2812 161.239 83.3789C161 83.4766 160.797 83.6133 160.631 83.7891C160.465 83.9648 160.333 84.1748 160.236 84.4189C160.143 84.6582 160.082 84.9219 160.053 85.21L159.672 85.4297C159.672 84.9512 159.718 84.502 159.811 84.082C159.909 83.6621 160.058 83.291 160.258 82.9688C160.458 82.6416 160.712 82.3877 161.02 82.207C161.332 82.0215 161.703 81.9287 162.133 81.9287C162.23 81.9287 162.343 81.9409 162.47 81.9653C162.597 81.9849 162.685 82.0068 162.733 82.0312ZM164.558 82.0752V90H163.196V82.0752H164.558ZM163.093 79.9731C163.093 79.7534 163.159 79.5679 163.291 79.4165C163.428 79.2651 163.628 79.1895 163.892 79.1895C164.15 79.1895 164.348 79.2651 164.485 79.4165C164.626 79.5679 164.697 79.7534 164.697 79.9731C164.697 80.1831 164.626 80.3638 164.485 80.5151C164.348 80.6616 164.15 80.7349 163.892 80.7349C163.628 80.7349 163.428 80.6616 163.291 80.5151C163.159 80.3638 163.093 80.1831 163.093 79.9731ZM165.474 86.1255V85.957C165.474 85.3857 165.557 84.856 165.723 84.3677C165.889 83.8745 166.129 83.4473 166.441 83.0859C166.754 82.7197 167.132 82.4365 167.576 82.2363C168.021 82.0312 168.519 81.9287 169.071 81.9287C169.627 81.9287 170.128 82.0312 170.572 82.2363C171.021 82.4365 171.402 82.7197 171.715 83.0859C172.032 83.4473 172.274 83.8745 172.44 84.3677C172.606 84.856 172.689 85.3857 172.689 85.957V86.1255C172.689 86.6968 172.606 87.2266 172.44 87.7148C172.274 88.2031 172.032 88.6304 171.715 88.9966C171.402 89.3579 171.024 89.6411 170.579 89.8462C170.14 90.0464 169.642 90.1465 169.085 90.1465C168.529 90.1465 168.028 90.0464 167.584 89.8462C167.139 89.6411 166.759 89.3579 166.441 88.9966C166.129 88.6304 165.889 88.2031 165.723 87.7148C165.557 87.2266 165.474 86.6968 165.474 86.1255ZM166.829 85.957V86.1255C166.829 86.521 166.876 86.8945 166.969 87.2461C167.061 87.5928 167.2 87.9004 167.386 88.1689C167.576 88.4375 167.813 88.6499 168.096 88.8062C168.38 88.9575 168.709 89.0332 169.085 89.0332C169.456 89.0332 169.781 88.9575 170.059 88.8062C170.343 88.6499 170.577 88.4375 170.762 88.1689C170.948 87.9004 171.087 87.5928 171.18 87.2461C171.278 86.8945 171.326 86.521 171.326 86.1255V85.957C171.326 85.5664 171.278 85.1978 171.18 84.8511C171.087 84.4995 170.946 84.1895 170.755 83.9209C170.57 83.6475 170.335 83.4326 170.052 83.2764C169.774 83.1201 169.447 83.042 169.071 83.042C168.7 83.042 168.372 83.1201 168.089 83.2764C167.811 83.4326 167.576 83.6475 167.386 83.9209C167.2 84.1895 167.061 84.4995 166.969 84.8511C166.876 85.1978 166.829 85.5664 166.829 85.957ZM177.664 83.7671V90H176.309V82.0752H177.59L177.664 83.7671ZM177.341 85.7373L176.777 85.7153C176.782 85.1733 176.863 84.6729 177.019 84.2139C177.175 83.75 177.395 83.3472 177.678 83.0054C177.962 82.6636 178.298 82.3999 178.689 82.2144C179.085 82.0239 179.522 81.9287 180 81.9287C180.391 81.9287 180.742 81.9824 181.055 82.0898C181.367 82.1924 181.633 82.3584 181.853 82.5879C182.078 82.8174 182.249 83.1152 182.366 83.4814C182.483 83.8428 182.542 84.2847 182.542 84.8071V90H181.179V84.7925C181.179 84.3774 181.118 84.0454 180.996 83.7964C180.874 83.5425 180.696 83.3594 180.462 83.2471C180.227 83.1299 179.939 83.0713 179.597 83.0713C179.26 83.0713 178.953 83.1421 178.674 83.2837C178.401 83.4253 178.164 83.6206 177.964 83.8696C177.769 84.1187 177.615 84.4043 177.503 84.7266C177.395 85.0439 177.341 85.3809 177.341 85.7373ZM188.373 88.645V84.5654C188.373 84.2529 188.309 83.9819 188.182 83.7524C188.06 83.5181 187.875 83.3374 187.625 83.2104C187.376 83.0835 187.069 83.02 186.703 83.02C186.361 83.02 186.061 83.0786 185.802 83.1958C185.548 83.313 185.348 83.4668 185.201 83.6572C185.06 83.8477 184.989 84.0527 184.989 84.2725H183.634C183.634 83.9893 183.707 83.7085 183.854 83.4302C184 83.1519 184.21 82.9004 184.483 82.6758C184.762 82.4463 185.094 82.2656 185.479 82.1338C185.87 81.9971 186.305 81.9287 186.783 81.9287C187.359 81.9287 187.867 82.0264 188.307 82.2217C188.751 82.417 189.098 82.7124 189.347 83.1079C189.601 83.4985 189.728 83.9893 189.728 84.5801V88.2715C189.728 88.5352 189.75 88.8159 189.793 89.1138C189.842 89.4116 189.913 89.668 190.006 89.8828V90H188.592C188.524 89.8438 188.47 89.6362 188.431 89.3774C188.392 89.1138 188.373 88.8696 188.373 88.645ZM188.607 85.1953L188.622 86.1475H187.252C186.866 86.1475 186.522 86.1792 186.219 86.2427C185.917 86.3013 185.663 86.3916 185.458 86.5137C185.252 86.6357 185.096 86.7896 184.989 86.9751C184.881 87.1558 184.828 87.3682 184.828 87.6123C184.828 87.8613 184.884 88.0884 184.996 88.2935C185.108 88.4985 185.277 88.6621 185.501 88.7842C185.731 88.9014 186.012 88.96 186.344 88.96C186.759 88.96 187.125 88.8721 187.442 88.6963C187.76 88.5205 188.011 88.3057 188.197 88.0518C188.387 87.7979 188.49 87.5513 188.504 87.312L189.083 87.9639C189.049 88.1689 188.956 88.396 188.805 88.645C188.653 88.894 188.451 89.1333 188.197 89.3628C187.948 89.5874 187.65 89.7754 187.303 89.9268C186.961 90.0732 186.576 90.1465 186.146 90.1465C185.609 90.1465 185.138 90.0415 184.732 89.8315C184.332 89.6216 184.02 89.3408 183.795 88.9893C183.575 88.6328 183.465 88.2349 183.465 87.7954C183.465 87.3706 183.548 86.9971 183.714 86.6748C183.88 86.3477 184.12 86.0767 184.432 85.8618C184.745 85.6421 185.121 85.4761 185.56 85.3638C186 85.2515 186.49 85.1953 187.032 85.1953H188.607ZM195.135 83.5986V93.0469H193.772V82.0752H195.017L195.135 83.5986ZM200.474 85.9717V86.1255C200.474 86.7017 200.406 87.2363 200.269 87.7295C200.132 88.2178 199.932 88.6426 199.668 89.0039C199.409 89.3652 199.09 89.646 198.709 89.8462C198.328 90.0464 197.891 90.1465 197.398 90.1465C196.895 90.1465 196.45 90.0635 196.065 89.8975C195.679 89.7314 195.352 89.4897 195.083 89.1724C194.815 88.855 194.6 88.4741 194.439 88.0298C194.283 87.5854 194.175 87.085 194.117 86.5283V85.708C194.175 85.1221 194.285 84.5972 194.446 84.1333C194.607 83.6694 194.82 83.2739 195.083 82.9468C195.352 82.6147 195.677 82.3633 196.057 82.1924C196.438 82.0166 196.878 81.9287 197.376 81.9287C197.874 81.9287 198.316 82.0264 198.701 82.2217C199.087 82.4121 199.412 82.6855 199.676 83.042C199.939 83.3984 200.137 83.8257 200.269 84.3237C200.406 84.8169 200.474 85.3662 200.474 85.9717ZM199.112 86.1255V85.9717C199.112 85.5762 199.07 85.2051 198.987 84.8584C198.904 84.5068 198.775 84.1992 198.599 83.9355C198.428 83.667 198.208 83.457 197.94 83.3057C197.671 83.1494 197.351 83.0713 196.98 83.0713C196.638 83.0713 196.341 83.1299 196.087 83.2471C195.838 83.3643 195.625 83.5229 195.45 83.7231C195.274 83.9185 195.13 84.1431 195.017 84.397C194.91 84.646 194.829 84.9048 194.776 85.1733V87.0703C194.873 87.4121 195.01 87.7344 195.186 88.0371C195.362 88.335 195.596 88.5767 195.889 88.7622C196.182 88.9429 196.551 89.0332 196.995 89.0332C197.361 89.0332 197.676 88.9575 197.94 88.8062C198.208 88.6499 198.428 88.4375 198.599 88.1689C198.775 87.9004 198.904 87.5928 198.987 87.2461C199.07 86.8945 199.112 86.521 199.112 86.1255ZM200.944 86.1255V85.957C200.944 85.3857 201.027 84.856 201.193 84.3677C201.359 83.8745 201.598 83.4473 201.91 83.0859C202.223 82.7197 202.601 82.4365 203.046 82.2363C203.49 82.0312 203.988 81.9287 204.54 81.9287C205.096 81.9287 205.597 82.0312 206.041 82.2363C206.49 82.4365 206.871 82.7197 207.184 83.0859C207.501 83.4473 207.743 83.8745 207.909 84.3677C208.075 84.856 208.158 85.3857 208.158 85.957V86.1255C208.158 86.6968 208.075 87.2266 207.909 87.7148C207.743 88.2031 207.501 88.6304 207.184 88.9966C206.871 89.3579 206.493 89.6411 206.049 89.8462C205.609 90.0464 205.111 90.1465 204.554 90.1465C203.998 90.1465 203.497 90.0464 203.053 89.8462C202.609 89.6411 202.228 89.3579 201.91 88.9966C201.598 88.6304 201.359 88.2031 201.193 87.7148C201.027 87.2266 200.944 86.6968 200.944 86.1255ZM202.299 85.957V86.1255C202.299 86.521 202.345 86.8945 202.438 87.2461C202.53 87.5928 202.67 87.9004 202.855 88.1689C203.046 88.4375 203.282 88.6499 203.566 88.8062C203.849 88.9575 204.178 89.0332 204.554 89.0332C204.925 89.0332 205.25 88.9575 205.529 88.8062C205.812 88.6499 206.046 88.4375 206.232 88.1689C206.417 87.9004 206.556 87.5928 206.649 87.2461C206.747 86.8945 206.796 86.521 206.796 86.1255V85.957C206.796 85.5664 206.747 85.1978 206.649 84.8511C206.556 84.4995 206.415 84.1895 206.224 83.9209C206.039 83.6475 205.804 83.4326 205.521 83.2764C205.243 83.1201 204.916 83.042 204.54 83.042C204.169 83.042 203.842 83.1201 203.558 83.2764C203.28 83.4326 203.046 83.6475 202.855 83.9209C202.67 84.1895 202.53 84.4995 202.438 84.8511C202.345 85.1978 202.299 85.5664 202.299 85.957ZM210.312 83.7671V90H208.957V82.0752H210.239L210.312 83.7671ZM209.99 85.7373L209.426 85.7153C209.431 85.1733 209.511 84.6729 209.668 84.2139C209.824 83.75 210.044 83.3472 210.327 83.0054C210.61 82.6636 210.947 82.3999 211.338 82.2144C211.733 82.0239 212.17 81.9287 212.649 81.9287C213.039 81.9287 213.391 81.9824 213.703 82.0898C214.016 82.1924 214.282 82.3584 214.502 82.5879C214.726 82.8174 214.897 83.1152 215.014 83.4814C215.131 83.8428 215.19 84.2847 215.19 84.8071V90H213.828V84.7925C213.828 84.3774 213.767 84.0454 213.645 83.7964C213.523 83.5425 213.344 83.3594 213.11 83.2471C212.876 83.1299 212.588 83.0713 212.246 83.0713C211.909 83.0713 211.601 83.1421 211.323 83.2837C211.049 83.4253 210.813 83.6206 210.612 83.8696C210.417 84.1187 210.263 84.4043 210.151 84.7266C210.044 85.0439 209.99 85.3809 209.99 85.7373ZM219.666 82.0752V83.1152H215.381V82.0752H219.666ZM216.832 80.1489H218.187V88.0371C218.187 88.3057 218.228 88.5083 218.311 88.645C218.394 88.7817 218.501 88.8721 218.633 88.916C218.765 88.96 218.907 88.9819 219.058 88.9819C219.17 88.9819 219.288 88.9722 219.41 88.9526C219.537 88.9282 219.632 88.9087 219.695 88.894L219.703 90C219.595 90.0342 219.454 90.0659 219.278 90.0952C219.107 90.1294 218.899 90.1465 218.655 90.1465C218.323 90.1465 218.018 90.0806 217.74 89.9487C217.461 89.8169 217.239 89.5972 217.073 89.2896C216.912 88.9771 216.832 88.5571 216.832 88.0298V80.1489ZM225.028 88.645V84.5654C225.028 84.2529 224.965 83.9819 224.838 83.7524C224.716 83.5181 224.53 83.3374 224.281 83.2104C224.032 83.0835 223.725 83.02 223.358 83.02C223.017 83.02 222.716 83.0786 222.457 83.1958C222.204 83.313 222.003 83.4668 221.857 83.6572C221.715 83.8477 221.644 84.0527 221.644 84.2725H220.289C220.289 83.9893 220.363 83.7085 220.509 83.4302C220.656 83.1519 220.866 82.9004 221.139 82.6758C221.417 82.4463 221.749 82.2656 222.135 82.1338C222.526 81.9971 222.96 81.9287 223.439 81.9287C224.015 81.9287 224.523 82.0264 224.962 82.2217C225.407 82.417 225.753 82.7124 226.002 83.1079C226.256 83.4985 226.383 83.9893 226.383 84.5801V88.2715C226.383 88.5352 226.405 88.8159 226.449 89.1138C226.498 89.4116 226.569 89.668 226.662 89.8828V90H225.248C225.18 89.8438 225.126 89.6362 225.087 89.3774C225.048 89.1138 225.028 88.8696 225.028 88.645ZM225.263 85.1953L225.277 86.1475H223.908C223.522 86.1475 223.178 86.1792 222.875 86.2427C222.572 86.3013 222.318 86.3916 222.113 86.5137C221.908 86.6357 221.752 86.7896 221.644 86.9751C221.537 87.1558 221.483 87.3682 221.483 87.6123C221.483 87.8613 221.539 88.0884 221.652 88.2935C221.764 88.4985 221.933 88.6621 222.157 88.7842C222.387 88.9014 222.667 88.96 222.999 88.96C223.414 88.96 223.781 88.8721 224.098 88.6963C224.415 88.5205 224.667 88.3057 224.852 88.0518C225.043 87.7979 225.145 87.5513 225.16 87.312L225.739 87.9639C225.704 88.1689 225.612 88.396 225.46 88.645C225.309 88.894 225.106 89.1333 224.852 89.3628C224.603 89.5874 224.306 89.7754 223.959 89.9268C223.617 90.0732 223.231 90.1465 222.802 90.1465C222.265 90.1465 221.793 90.0415 221.388 89.8315C220.988 89.6216 220.675 89.3408 220.451 88.9893C220.231 88.6328 220.121 88.2349 220.121 87.7954C220.121 87.3706 220.204 86.9971 220.37 86.6748C220.536 86.3477 220.775 86.0767 221.088 85.8618C221.4 85.6421 221.776 85.4761 222.216 85.3638C222.655 85.2515 223.146 85.1953 223.688 85.1953H225.263ZM235.43 88.4619V78.75H236.793V90H235.548L235.43 88.4619ZM230.098 86.1255V85.9717C230.098 85.3662 230.172 84.8169 230.318 84.3237C230.469 83.8257 230.682 83.3984 230.955 83.042C231.234 82.6855 231.563 82.4121 231.944 82.2217C232.33 82.0264 232.759 81.9287 233.233 81.9287C233.731 81.9287 234.166 82.0166 234.537 82.1924C234.913 82.3633 235.23 82.6147 235.489 82.9468C235.753 83.2739 235.96 83.6694 236.112 84.1333C236.263 84.5972 236.368 85.1221 236.426 85.708V86.3818C236.373 86.9629 236.268 87.4854 236.112 87.9492C235.96 88.4131 235.753 88.8086 235.489 89.1357C235.23 89.4629 234.913 89.7144 234.537 89.8901C234.161 90.061 233.721 90.1465 233.218 90.1465C232.755 90.1465 232.33 90.0464 231.944 89.8462C231.563 89.646 231.234 89.3652 230.955 89.0039C230.682 88.6426 230.469 88.2178 230.318 87.7295C230.172 87.2363 230.098 86.7017 230.098 86.1255ZM231.461 85.9717V86.1255C231.461 86.521 231.5 86.8921 231.578 87.2388C231.661 87.5854 231.788 87.8906 231.959 88.1543C232.13 88.418 232.347 88.6255 232.611 88.7769C232.874 88.9233 233.189 88.9966 233.555 88.9966C234.005 88.9966 234.373 88.9014 234.661 88.7109C234.954 88.5205 235.189 88.269 235.364 87.9565C235.54 87.644 235.677 87.3047 235.775 86.9385V85.1733C235.716 84.9048 235.631 84.646 235.518 84.397C235.411 84.1431 235.269 83.9185 235.093 83.7231C234.923 83.5229 234.71 83.3643 234.456 83.2471C234.207 83.1299 233.912 83.0713 233.57 83.0713C233.199 83.0713 232.879 83.1494 232.611 83.3057C232.347 83.457 232.13 83.667 231.959 83.9355C231.788 84.1992 231.661 84.5068 231.578 84.8584C231.5 85.2051 231.461 85.5762 231.461 85.9717ZM242.675 88.645V84.5654C242.675 84.2529 242.611 83.9819 242.484 83.7524C242.362 83.5181 242.177 83.3374 241.928 83.2104C241.679 83.0835 241.371 83.02 241.005 83.02C240.663 83.02 240.363 83.0786 240.104 83.1958C239.85 83.313 239.65 83.4668 239.504 83.6572C239.362 83.8477 239.291 84.0527 239.291 84.2725H237.936C237.936 83.9893 238.009 83.7085 238.156 83.4302C238.302 83.1519 238.512 82.9004 238.786 82.6758C239.064 82.4463 239.396 82.2656 239.782 82.1338C240.172 81.9971 240.607 81.9287 241.086 81.9287C241.662 81.9287 242.17 82.0264 242.609 82.2217C243.053 82.417 243.4 82.7124 243.649 83.1079C243.903 83.4985 244.03 83.9893 244.03 84.5801V88.2715C244.03 88.5352 244.052 88.8159 244.096 89.1138C244.145 89.4116 244.215 89.668 244.308 89.8828V90H242.895C242.826 89.8438 242.773 89.6362 242.733 89.3774C242.694 89.1138 242.675 88.8696 242.675 88.645ZM242.909 85.1953L242.924 86.1475H241.554C241.169 86.1475 240.824 86.1792 240.522 86.2427C240.219 86.3013 239.965 86.3916 239.76 86.5137C239.555 86.6357 239.399 86.7896 239.291 86.9751C239.184 87.1558 239.13 87.3682 239.13 87.6123C239.13 87.8613 239.186 88.0884 239.298 88.2935C239.411 88.4985 239.579 88.6621 239.804 88.7842C240.033 88.9014 240.314 88.96 240.646 88.96C241.061 88.96 241.427 88.8721 241.745 88.6963C242.062 88.5205 242.314 88.3057 242.499 88.0518C242.69 87.7979 242.792 87.5513 242.807 87.312L243.385 87.9639C243.351 88.1689 243.258 88.396 243.107 88.645C242.956 88.894 242.753 89.1333 242.499 89.3628C242.25 89.5874 241.952 89.7754 241.606 89.9268C241.264 90.0732 240.878 90.1465 240.448 90.1465C239.911 90.1465 239.44 90.0415 239.035 89.8315C238.634 89.6216 238.322 89.3408 238.097 88.9893C237.878 88.6328 237.768 88.2349 237.768 87.7954C237.768 87.3706 237.851 86.9971 238.017 86.6748C238.183 86.3477 238.422 86.0767 238.734 85.8618C239.047 85.6421 239.423 85.4761 239.862 85.3638C240.302 85.2515 240.793 85.1953 241.335 85.1953H242.909ZM249.554 78.75V90H248.192V78.75H249.554ZM252.294 82.0752V90H250.939V82.0752H252.294ZM250.895 80.918L252.316 78.7646H253.95L251.987 80.918H250.895ZM255.005 83.7671V90H253.65V82.0752H254.932L255.005 83.7671ZM254.683 85.7373L254.119 85.7153C254.124 85.1733 254.204 84.6729 254.361 84.2139C254.517 83.75 254.737 83.3472 255.02 83.0054C255.303 82.6636 255.64 82.3999 256.03 82.2144C256.426 82.0239 256.863 81.9287 257.342 81.9287C257.732 81.9287 258.084 81.9824 258.396 82.0898C258.709 82.1924 258.975 82.3584 259.195 82.5879C259.419 82.8174 259.59 83.1152 259.707 83.4814C259.824 83.8428 259.883 84.2847 259.883 84.8071V90H258.521V84.7925C258.521 84.3774 258.46 84.0454 258.338 83.7964C258.216 83.5425 258.037 83.3594 257.803 83.2471C257.569 83.1299 257.28 83.0713 256.939 83.0713C256.602 83.0713 256.294 83.1421 256.016 83.2837C255.742 83.4253 255.506 83.6206 255.305 83.8696C255.11 84.1187 254.956 84.4043 254.844 84.7266C254.737 85.0439 254.683 85.3809 254.683 85.7373ZM266.175 82.0752H267.406V89.8315C267.406 90.5298 267.264 91.1255 266.981 91.6187C266.698 92.1118 266.302 92.4854 265.795 92.7393C265.292 92.998 264.711 93.1274 264.051 93.1274C263.778 93.1274 263.456 93.0835 263.085 92.9956C262.718 92.9126 262.357 92.7686 262.001 92.5635C261.649 92.3633 261.354 92.0923 261.114 91.7505L261.825 90.9448C262.157 91.3452 262.504 91.6235 262.865 91.7798C263.231 91.936 263.592 92.0142 263.949 92.0142C264.379 92.0142 264.75 91.9336 265.062 91.7725C265.375 91.6113 265.616 91.3721 265.787 91.0547C265.963 90.7422 266.051 90.3564 266.051 89.8975V83.8184L266.175 82.0752ZM260.719 86.1255V85.9717C260.719 85.3662 260.79 84.8169 260.931 84.3237C261.078 83.8257 261.285 83.3984 261.554 83.042C261.827 82.6855 262.157 82.4121 262.543 82.2217C262.928 82.0264 263.363 81.9287 263.846 81.9287C264.344 81.9287 264.779 82.0166 265.15 82.1924C265.526 82.3633 265.843 82.6147 266.102 82.9468C266.366 83.2739 266.573 83.6694 266.725 84.1333C266.876 84.5972 266.981 85.1221 267.04 85.708V86.3818C266.986 86.9629 266.881 87.4854 266.725 87.9492C266.573 88.4131 266.366 88.8086 266.102 89.1357C265.843 89.4629 265.526 89.7144 265.15 89.8901C264.774 90.061 264.335 90.1465 263.832 90.1465C263.358 90.1465 262.928 90.0464 262.543 89.8462C262.162 89.646 261.835 89.3652 261.561 89.0039C261.288 88.6426 261.078 88.2178 260.931 87.7295C260.79 87.2363 260.719 86.7017 260.719 86.1255ZM262.074 85.9717V86.1255C262.074 86.521 262.113 86.8921 262.191 87.2388C262.274 87.5854 262.399 87.8906 262.565 88.1543C262.735 88.418 262.953 88.6255 263.216 88.7769C263.48 88.9233 263.795 88.9966 264.161 88.9966C264.61 88.9966 264.982 88.9014 265.275 88.7109C265.567 88.5205 265.799 88.269 265.97 87.9565C266.146 87.644 266.283 87.3047 266.38 86.9385V85.1733C266.327 84.9048 266.244 84.646 266.131 84.397C266.024 84.1431 265.882 83.9185 265.707 83.7231C265.536 83.5229 265.323 83.3643 265.069 83.2471C264.816 83.1299 264.518 83.0713 264.176 83.0713C263.805 83.0713 263.485 83.1494 263.216 83.3057C262.953 83.457 262.735 83.667 262.565 83.9355C262.399 84.1992 262.274 84.5068 262.191 84.8584C262.113 85.2051 262.074 85.5762 262.074 85.9717ZM273.413 88.1689V82.0752H274.775V90H273.479L273.413 88.1689ZM273.669 86.499L274.233 86.4844C274.233 87.0117 274.177 87.5 274.064 87.9492C273.957 88.3936 273.781 88.7793 273.537 89.1064C273.293 89.4336 272.973 89.6899 272.578 89.8755C272.182 90.0562 271.701 90.1465 271.135 90.1465C270.749 90.1465 270.395 90.0903 270.073 89.978C269.755 89.8657 269.482 89.6924 269.252 89.458C269.023 89.2236 268.845 88.9185 268.718 88.5425C268.596 88.1665 268.535 87.7148 268.535 87.1875V82.0752H269.89V87.2021C269.89 87.5586 269.929 87.854 270.007 88.0884C270.09 88.3179 270.2 88.501 270.336 88.6377C270.478 88.7695 270.634 88.8623 270.805 88.916C270.981 88.9697 271.162 88.9966 271.347 88.9966C271.923 88.9966 272.38 88.8867 272.717 88.667C273.054 88.4424 273.295 88.1421 273.442 87.7661C273.593 87.3853 273.669 86.9629 273.669 86.499ZM280.613 88.645V84.5654C280.613 84.2529 280.55 83.9819 280.423 83.7524C280.301 83.5181 280.115 83.3374 279.866 83.2104C279.617 83.0835 279.309 83.02 278.943 83.02C278.601 83.02 278.301 83.0786 278.042 83.1958C277.788 83.313 277.588 83.4668 277.442 83.6572C277.3 83.8477 277.229 84.0527 277.229 84.2725H275.874C275.874 83.9893 275.948 83.7085 276.094 83.4302C276.241 83.1519 276.451 82.9004 276.724 82.6758C277.002 82.4463 277.334 82.2656 277.72 82.1338C278.111 81.9971 278.545 81.9287 279.024 81.9287C279.6 81.9287 280.108 82.0264 280.547 82.2217C280.992 82.417 281.338 82.7124 281.587 83.1079C281.841 83.4985 281.968 83.9893 281.968 84.5801V88.2715C281.968 88.5352 281.99 88.8159 282.034 89.1138C282.083 89.4116 282.154 89.668 282.246 89.8828V90H280.833C280.765 89.8438 280.711 89.6362 280.672 89.3774C280.633 89.1138 280.613 88.8696 280.613 88.645ZM280.848 85.1953L280.862 86.1475H279.493C279.107 86.1475 278.763 86.1792 278.46 86.2427C278.157 86.3013 277.903 86.3916 277.698 86.5137C277.493 86.6357 277.337 86.7896 277.229 86.9751C277.122 87.1558 277.068 87.3682 277.068 87.6123C277.068 87.8613 277.124 88.0884 277.237 88.2935C277.349 88.4985 277.517 88.6621 277.742 88.7842C277.972 88.9014 278.252 88.96 278.584 88.96C278.999 88.96 279.366 88.8721 279.683 88.6963C280 88.5205 280.252 88.3057 280.437 88.0518C280.628 87.7979 280.73 87.5513 280.745 87.312L281.324 87.9639C281.289 88.1689 281.197 88.396 281.045 88.645C280.894 88.894 280.691 89.1333 280.437 89.3628C280.188 89.5874 279.891 89.7754 279.544 89.9268C279.202 90.0732 278.816 90.1465 278.387 90.1465C277.85 90.1465 277.378 90.0415 276.973 89.8315C276.573 89.6216 276.26 89.3408 276.036 88.9893C275.816 88.6328 275.706 88.2349 275.706 87.7954C275.706 87.3706 275.789 86.9971 275.955 86.6748C276.121 86.3477 276.36 86.0767 276.673 85.8618C276.985 85.6421 277.361 85.4761 277.801 85.3638C278.24 85.2515 278.731 85.1953 279.273 85.1953H280.848Z" fill="black"/>
<g clip-path="url(#clip0_138_2)">
<path fill-rule="evenodd" clip-rule="evenodd" d="M0 23.1C0 16.7055 4.74025 11.3 11.1 11.3H45.9C52.1584 11.3 57 16.804 57 23.1V23.5C57 24.8808 55.8807 26 54.5 26C53.1193 26 52 24.8808 52 23.5V23.1C52 19.1961 49.0416 16.3 45.9 16.3H11.1C7.85975 16.3 5 19.0946 5 23.1V78.3C5 82.204 7.9584 85.1 11.1 85.1H45.8C49.0402 85.1 51.9 82.3055 51.9 78.3V77.5C51.9 76.1193 53.0193 75 54.4 75C55.7807 75 56.9 76.1193 56.9 77.5V78.3C56.9 84.6946 52.1597 90.1 45.8 90.1H11.1C4.8416 90.1 0 84.5961 0 78.3V23.1Z" fill="#552A7F"/>
<path d="M23.6 11.9C23.6 9.2 26 7 29 7C32 7 34.4 9.2 34.4 11.9" fill="#552A7F"/>
<path fill-rule="evenodd" clip-rule="evenodd" d="M54.3 51.7C55.6808 51.7 56.8 52.8192 56.8 54.2V68.5999C56.8 69.9807 55.6808 71.0999 54.3 71.0999C52.9193 71.0999 51.8 69.9807 51.8 68.5999V54.2C51.8 52.8192 52.9193 51.7 54.3 51.7Z" fill="#552A7F"/>
<path fill-rule="evenodd" clip-rule="evenodd" d="M67.5 26.7C68.8807 26.7 70 27.8192 70 29.2V48C70 49.3807 68.8807 50.5 67.5 50.5C66.1193 50.5 65 49.3807 65 48V29.2C65 27.8192 66.1193 26.7 67.5 26.7Z" fill="#552A7F"/>
<path fill-rule="evenodd" clip-rule="evenodd" d="M47.7 26.7C49.0807 26.7 50.2 27.8192 50.2 29.2V48C50.2 49.3807 49.0807 50.5 47.7 50.5C46.3192 50.5 45.2 49.3807 45.2 48V29.2C45.2 27.8192 46.3192 26.7 47.7 26.7Z" fill="#552A7F"/>
<path fill-rule="evenodd" clip-rule="evenodd" d="M60.9 32.8C62.2807 32.8 63.4 33.9193 63.4 35.3V48C63.4 49.3808 62.2807 50.5 60.9 50.5C59.5193 50.5 58.4 49.3808 58.4 48V35.3C58.4 33.9193 59.5193 32.8 60.9 32.8Z" fill="#552A7F"/>
<path fill-rule="evenodd" clip-rule="evenodd" d="M54.3 31.1001C55.6808 31.1001 56.8 32.2194 56.8 33.6001V48.0001C56.8 49.3808 55.6808 50.5001 54.3 50.5001C52.9193 50.5001 51.8 49.3808 51.8 48.0001V33.6001C51.8 32.2194 52.9193 31.1001 54.3 31.1001Z" fill="#552A7F"/>
<path fill-rule="evenodd" clip-rule="evenodd" d="M41.1 51.8C42.4807 51.8 43.6 52.9193 43.6 54.3V65.5C43.6 66.8808 42.4807 68 41.1 68C39.7193 68 38.6 66.8808 38.6 65.5V54.3C38.6 52.9193 39.7193 51.8 41.1 51.8Z" fill="#552A7F"/>
<path fill-rule="evenodd" clip-rule="evenodd" d="M41.1 34.3C42.4807 34.3 43.6 35.4193 43.6 36.8V48C43.6 49.3808 42.4807 50.5 41.1 50.5C39.7193 50.5 38.6 49.3808 38.6 48V36.8C38.6 35.4193 39.7193 34.3 41.1 34.3Z" fill="#552A7F"/>
<path fill-rule="evenodd" clip-rule="evenodd" d="M34.4 38C35.7807 38 36.9 39.1193 36.9 40.5V48C36.9 49.3807 35.7807 50.5 34.4 50.5C33.0193 50.5 31.9 49.3807 31.9 48V40.5C31.9 39.1193 33.0193 38 34.4 38Z" fill="#552A7F"/>
<path fill-rule="evenodd" clip-rule="evenodd" d="M74.2 38C75.5807 38 76.7 39.1193 76.7 40.5V48C76.7 49.3807 75.5807 50.5 74.2 50.5C72.8192 50.5 71.7 49.3807 71.7 48V40.5C71.7 39.1193 72.8192 38 74.2 38Z" fill="#552A7F"/>
<path fill-rule="evenodd" clip-rule="evenodd" d="M74.2 51.8C75.5807 51.8 76.7 52.9193 76.7 54.3V61.8C76.7 63.1808 75.5807 64.3 74.2 64.3C72.8192 64.3 71.7 63.1808 71.7 61.8V54.3C71.7 52.9193 72.8192 51.8 74.2 51.8Z" fill="#552A7F"/>
<path fill-rule="evenodd" clip-rule="evenodd" d="M67.5 51.7C68.8807 51.7 70 52.8192 70 54.2V73C70 74.3807 68.8807 75.5 67.5 75.5C66.1193 75.5 65 74.3807 65 73V54.2C65 52.8192 66.1193 51.7 67.5 51.7Z" fill="#552A7F"/>
<path fill-rule="evenodd" clip-rule="evenodd" d="M47.7 51.7C49.0807 51.7 50.2 52.8192 50.2 54.2V73C50.2 74.3807 49.0807 75.5 47.7 75.5C46.3192 75.5 45.2 74.3807 45.2 73V54.2C45.2 52.8192 46.3192 51.7 47.7 51.7Z" fill="#552A7F"/>
<path fill-rule="evenodd" clip-rule="evenodd" d="M60.9 51.7C62.2807 51.7 63.4 52.8192 63.4 54.2V66.9C63.4 68.2807 62.2807 69.4 60.9 69.4C59.5193 69.4 58.4 68.2807 58.4 66.9V54.2C58.4 52.8192 59.5193 51.7 60.9 51.7Z" fill="#552A7F"/>
<path fill-rule="evenodd" clip-rule="evenodd" d="M34.1 51.7C35.4807 51.7 36.6 52.8192 36.6 54.2V62.5C36.6 63.8807 35.4807 65 34.1 65C32.7193 65 31.6 63.8807 31.6 62.5V54.2C31.6 52.8192 32.7193 51.7 34.1 51.7Z" fill="#552A7F"/>
<path fill-rule="evenodd" clip-rule="evenodd" d="M80.5 51.7C81.8807 51.7 83 52.8192 83 54.2V58.5999C83 59.9807 81.8807 61.0999 80.5 61.0999C79.1193 61.0999 78 59.9807 78 58.5999V54.2C78 52.8192 79.1193 51.7 80.5 51.7Z" fill="#552A7F"/>
<path fill-rule="evenodd" clip-rule="evenodd" d="M80.5 41C81.8807 41 83 42.1193 83 43.5V47.8C83 49.1807 81.8807 50.3 80.5 50.3C79.1193 50.3 78 49.1807 78 47.8V43.5C78 42.1193 79.1193 41 80.5 41Z" fill="#552A7F"/>
<path fill-rule="evenodd" clip-rule="evenodd" d="M27.9 51.7C29.2807 51.7 30.4 52.8192 30.4 54.2V58.5999C30.4 59.9807 29.2807 61.0999 27.9 61.0999C26.5193 61.0999 25.4 59.9807 25.4 58.5999V54.2C25.4 52.8192 26.5193 51.7 27.9 51.7Z" fill="#552A7F"/>
<path fill-rule="evenodd" clip-rule="evenodd" d="M27.9 41C29.2807 41 30.4 42.1193 30.4 43.5V47.8C30.4 49.1807 29.2807 50.3 27.9 50.3C26.5193 50.3 25.4 49.1807 25.4 47.8V43.5C25.4 42.1193 26.5193 41 27.9 41Z" fill="#552A7F"/>
</g>
<defs>
<clipPath id="clip0_138_2">
<rect width="83" height="83.1" fill="white" transform="translate(0 7)"/>
</clipPath>
</defs>
</svg>
